<svg xmlns="http://www.w3.org/2000/svg" viewBox="0 0 1200 530">
  <title>Company Logo</title>
  <desc>An abstract logo design with various geometric shapes and letters</desc>
  <defs>
    <style>
      .logo-color {fill: #00e5e8;}
    </style>
  </defs>
  <g id="logo-group" opacity="0.6">
    <path class="logo-color" d="M633 75l549 131 9-46c3-13-5-27-17-29L632 2a75 75 0 0 0-36 0L17 145c-12 3-19 16-17 30l9 46 597-146a75 75 0 0 1 36 0z"/>
    <path class="logo-color" d="M11 331l70-5v197h38a26 26 0 0 0 19-8 26 26 0 0 0 8-19V321l76-5v-66L11 270z"/>
    <path class="logo-color" d="M420 265q-26-15-60-15-6 0-17 1-35 4-62 22t-43 49q-16 31-16 75 0 43 16 73t43 44q27 15 62 15 37 0 67-16t48-50q18-33 18-80 0-44-15-74t-42-44zM389 452q-18 23-47 23-26 0-42-21-16-20-16-60 0-43 19-65t48-23q25 0 41 21t16 60q0 43-18 65z"/>
    <path class="logo-color" d="M682 265q-26-15-60-15-6 0-17 1-35 4-62 22t-43 49q-16 31-16 75 0 43 16 73t43 44q27 15 62 15 37 0 67-16t48-50q18-33 18-80 0-44-15-74t-42-44zM651 452q-18 23-47 23-26 0-42-21-16-20-16-60 0-43 19-65t48-23q25 0 41 21t16 60q0 43-18 65z"/>
    <path class="logo-color" d="M911 262a30 30 0 0 0-8 20v132L810 265l-61 6v254h61V372l92 153h69V248l-41 4a28 28 0 0 0-19 10z"/>
    <path class="logo-color" d="M1203 430q0-14-8-28a85 85 0 0 0-55-44 248 248 0 0 0-38-8q-14-2-20-4a22 22 0 0 1-11-7q-4-4-4-11a27 27 0 0 1 4-14 22 22 0 0 1 11-10 63 63 0 0 1 24-5q26 0 48 22l39-43q-13-14-32-23a95 95 0 0 0-42-10 73 73 0 0 0-9 0q-36 4-58 16a105 105 0 0 0-37 33q-11 17-11 40a72 72 0 0 0 6 30 56 56 0 0 0 20 23q17 12 40 18l18 4a181 181 0 0 1 21 5 68 68 0 0 1 13 6 57 57 0 0 1 10 10 19 19 0 0 1 4 12 31 31 0 0 1-4 14q-3 7-12 11a51 51 0 0 1-21 4 65 65 0 0 1-27-6 130 130 0 0 1-23-13 27 27 0 0 0-16-5 29 29 0 0 0-12 3 25 25 0 0 0-10 8l-18 22q6 9 22 21t40 22q25 10 54 8 59-3 77-35t18-64z"/>
  </g>
</svg>